<?xml version="1.0" encoding="utf-8"?>
<!-- Generator: Adobe Illustrator 24.3.0, SVG Export Plug-In . SVG Version: 6.00 Build 0)  -->
<svg version="1.1" id="Capa_1" xmlns="http://www.w3.org/2000/svg" xmlns:xlink="http://www.w3.org/1999/xlink" x="0px" y="0px"
	 viewBox="0 0 1024 596" style="enable-background:new 0 0 1024 596;" xml:space="preserve">
<style type="text/css">
	.st0{opacity:0.37;}
	.st1{fill:#E26917;}
	.st2{opacity:0.38;fill:#81BECC;}
	.st3{opacity:0.22;fill:#EA843F;}
	.st4{fill:none;stroke:#212830;stroke-width:0.38;stroke-linecap:square;stroke-miterlimit:10;}
	.st5{fill:#3B6172;}
	.st6{opacity:0.8;}
	.st7{fill:none;stroke:#000000;stroke-width:0.3;}
	.st8{fill:#708B99;}
</style>
<g>
	<g class="st0">
		<path class="st1" d="M685.65,372.05c-9.69,4.96-28.82,13.11-51.43,13.11c-25.34,0-46.21-9.21-62.61-31.54
			c-14.41-19.84-23.35-51.74-23.35-88.95c0.25-71.23,34.53-123.32,90.68-123.32c19.38,0,34.53,6.02,41.74,10.99l-5.22,25.16
			c-8.94-5.67-20.12-10.28-37.02-10.28c-40.74,0-67.33,36.15-67.33,96.03c0,60.6,25.59,96.39,64.59,96.39
			c14.16,0,23.85-2.84,28.82-6.38v-71.23H630.5v-24.81h55.15V372.05z"/>
	</g>
	<g>
		<path d="M392.81,339.87c8.87,7.91,21.83,14.51,35.48,14.51c20.24,0,32.07-15.5,32.07-37.92c0-20.77-8.19-32.64-28.88-44.18
			c-25.02-12.86-40.48-31.65-40.48-62.98c0-34.62,19.79-60.34,49.58-60.34c15.69,0,27.06,5.28,33.89,10.88L469,183.26
			c-5-3.96-15.24-10.55-29.11-10.55c-20.92,0-28.88,18.13-28.88,33.3c0,20.77,9.32,30.99,30.47,42.86
			c25.93,14.51,39.11,32.64,39.11,65.28c0,34.29-17.51,63.96-53.67,63.96c-14.78,0-30.93-6.26-39.12-14.18L392.81,339.87z"/>
		<path d="M527.44,152.59v222.23h-19.78V152.59H527.44z"/>
		<path class="st1" d="M678.67,364.93c-8.87,4.62-26.38,12.2-47.08,12.2c-23.2,0-42.3-8.57-57.31-29.35
			c-13.19-18.46-21.38-48.14-21.38-82.76c0.23-66.27,31.61-114.74,83.01-114.74c17.74,0,31.61,5.61,38.21,10.22l-4.78,23.41
			c-8.19-5.28-18.42-9.56-33.88-9.56c-37.3,0-61.63,33.63-61.63,89.35c0,56.38,23.42,89.68,59.13,89.68
			c12.96,0,21.83-2.64,26.38-5.93v-66.27h-31.16V258.1h50.49V364.93z"/>
		<path d="M838.08,277.22c-1.14-30.99-2.5-68.25-2.27-95.95h-0.68c-5.23,26.05-11.6,53.74-19.33,84.41L788.73,373.5h-15.01
			l-24.79-105.84c-7.28-31.32-13.42-60.01-17.74-86.39h-0.46c-0.45,27.7-1.59,64.95-2.96,98.25l-4.09,95.29h-18.88l10.69-222.23
			h25.24l26.15,107.49c6.37,27.37,11.6,51.77,15.47,74.85h0.68c3.87-22.42,9.32-46.82,16.15-74.85l27.29-107.49h25.24l9.55,222.23
			h-19.33L838.08,277.22z"/>
		<path d="M914.26,304.92l-15.92,69.9h-20.47l52.08-222.23h23.88l52.31,222.23h-21.15l-16.37-69.9H914.26z M964.52,282.5
			l-15.01-63.96c-3.41-14.51-5.69-27.7-7.96-40.55h-0.45c-2.27,13.19-4.78,26.71-7.73,40.22l-15.01,64.29H964.52z"/>
	</g>
	<path class="st2" d="M195.59,348.28c-4.16-320.91-72.12-258.97-72.12-258.97l-91.46,91.61"/>
	<path class="st3" d="M153.94,247.09c4.16,320.91,72.12,258.97,72.12,258.97l91.46-91.61"/>
	<line class="st4" x1="192.1" y1="590.51" x2="341.11" y2="402.6"/>
	<line class="st4" x1="235.51" y1="391.78" x2="251.39" y2="408.57"/>
	<line class="st4" x1="217.4" y1="414.05" x2="233.34" y2="431.46"/>
	<polygon class="st5" points="235.51,391.78 217.4,414.05 233.34,431.46 251.39,408.57 	"/>
	<line class="st4" x1="178.08" y1="372.98" x2="196.14" y2="350.09"/>
	<line class="st4" x1="153.3" y1="247.29" x2="171.35" y2="224.4"/>
	<g>
		<line class="st5" x1="114.61" y1="206.17" x2="98.05" y2="188.82"/>
		<line class="st5" x1="132.04" y1="183.34" x2="116.1" y2="165.93"/>
		<polyline class="st5" points="116.1,165.93 98.05,188.82 114.61,206.17 132.04,183.34 		"/>
	</g>
	<g class="st6">
		<g>
			<g>
				<g>
					<line class="st7" x1="219.44" y1="327.12" x2="224.53" y2="320.79"/>
					<line class="st7" x1="218.58" y1="326.43" x2="223.66" y2="320.09"/>
					<line class="st7" x1="221.93" y1="318.7" x2="216.84" y2="325.04"/>
					<line class="st7" x1="217.71" y1="325.73" x2="222.79" y2="319.4"/>
					<line class="st7" x1="221.06" y1="318" x2="215.97" y2="324.34"/>
				</g>
				<g>
					<line class="st7" x1="214.36" y1="333.46" x2="219.44" y2="327.12"/>
					<line class="st7" x1="213.49" y1="332.77" x2="218.58" y2="326.43"/>
					<line class="st7" x1="216.84" y1="325.04" x2="211.76" y2="331.37"/>
					<line class="st7" x1="212.62" y1="332.07" x2="217.71" y2="325.73"/>
					<line class="st7" x1="215.97" y1="324.34" x2="210.89" y2="330.68"/>
				</g>
				<g>
					<line class="st7" x1="209.27" y1="339.8" x2="214.36" y2="333.46"/>
					<line class="st7" x1="208.4" y1="339.1" x2="213.49" y2="332.77"/>
					<line class="st7" x1="211.76" y1="331.37" x2="206.67" y2="337.71"/>
					<line class="st7" x1="207.54" y1="338.41" x2="212.62" y2="332.07"/>
					<line class="st7" x1="210.89" y1="330.68" x2="205.8" y2="337.01"/>
				</g>
				<g>
					<line class="st7" x1="204.18" y1="346.13" x2="209.27" y2="339.8"/>
					<line class="st7" x1="203.32" y1="345.44" x2="208.4" y2="339.1"/>
					<line class="st7" x1="206.67" y1="337.71" x2="201.58" y2="344.05"/>
					<line class="st7" x1="202.45" y1="344.74" x2="207.54" y2="338.41"/>
					<line class="st7" x1="205.8" y1="337.01" x2="200.72" y2="343.35"/>
				</g>
				<g>
					<line class="st7" x1="199.1" y1="352.47" x2="204.18" y2="346.14"/>
					<line class="st7" x1="198.23" y1="351.78" x2="203.32" y2="345.44"/>
					<line class="st7" x1="201.58" y1="344.05" x2="196.5" y2="350.38"/>
					<line class="st7" x1="197.36" y1="351.08" x2="202.45" y2="344.74"/>
					<line class="st7" x1="200.72" y1="343.35" x2="195.63" y2="349.69"/>
				</g>
			</g>
		</g>
	</g>
	<g class="st6">
		<g>
			<g>
				<g>
					<line class="st7" x1="327.57" y1="190.09" x2="332.29" y2="184.1"/>
					<line class="st7" x1="326.7" y1="189.4" x2="331.42" y2="183.41"/>
					<line class="st7" x1="329.67" y1="182.03" x2="324.95" y2="188.02"/>
					<line class="st7" x1="325.83" y1="188.71" x2="330.55" y2="182.72"/>
					<line class="st7" x1="328.8" y1="181.35" x2="324.08" y2="187.33"/>
				</g>
				<g>
					<line class="st7" x1="322.85" y1="196.07" x2="327.57" y2="190.09"/>
					<line class="st7" x1="321.98" y1="195.39" x2="326.7" y2="189.4"/>
					<line class="st7" x1="324.95" y1="188.02" x2="320.23" y2="194.01"/>
					<line class="st7" x1="321.11" y1="194.7" x2="325.83" y2="188.71"/>
					<line class="st7" x1="324.08" y1="187.33" x2="319.36" y2="193.32"/>
				</g>
				<g>
					<line class="st7" x1="318.13" y1="202.06" x2="322.85" y2="196.07"/>
					<line class="st7" x1="317.26" y1="201.37" x2="321.98" y2="195.39"/>
					<line class="st7" x1="320.23" y1="194.01" x2="315.51" y2="200"/>
					<line class="st7" x1="316.38" y1="200.69" x2="321.11" y2="194.7"/>
					<line class="st7" x1="319.36" y1="193.32" x2="314.64" y2="199.31"/>
				</g>
				<g>
					<line class="st7" x1="313.41" y1="208.05" x2="318.13" y2="202.06"/>
					<line class="st7" x1="312.54" y1="207.36" x2="317.26" y2="201.37"/>
					<line class="st7" x1="315.51" y1="200" x2="310.79" y2="205.99"/>
					<line class="st7" x1="311.66" y1="206.67" x2="316.38" y2="200.69"/>
					<line class="st7" x1="314.64" y1="199.31" x2="309.92" y2="205.3"/>
				</g>
				<g>
					<line class="st7" x1="308.69" y1="214.04" x2="313.41" y2="208.05"/>
					<line class="st7" x1="307.82" y1="213.35" x2="312.54" y2="207.36"/>
					<line class="st7" x1="310.79" y1="205.99" x2="306.07" y2="211.97"/>
					<line class="st7" x1="306.94" y1="212.66" x2="311.66" y2="206.67"/>
					<line class="st7" x1="309.92" y1="205.3" x2="305.2" y2="211.29"/>
				</g>
				<g>
					<line class="st7" x1="303.97" y1="220.03" x2="308.69" y2="214.04"/>
					<line class="st7" x1="303.1" y1="219.34" x2="307.82" y2="213.35"/>
					<line class="st7" x1="306.07" y1="211.97" x2="301.35" y2="217.96"/>
					<line class="st7" x1="302.22" y1="218.65" x2="306.94" y2="212.66"/>
					<line class="st7" x1="305.2" y1="211.29" x2="300.48" y2="217.27"/>
				</g>
				<g>
					<line class="st7" x1="299.25" y1="226.01" x2="303.97" y2="220.03"/>
					<line class="st7" x1="298.38" y1="225.33" x2="303.1" y2="219.34"/>
					<line class="st7" x1="301.35" y1="217.96" x2="296.63" y2="223.95"/>
					<line class="st7" x1="297.5" y1="224.64" x2="302.22" y2="218.65"/>
					<line class="st7" x1="300.48" y1="217.27" x2="295.76" y2="223.26"/>
				</g>
				<g>
					<line class="st7" x1="294.53" y1="232" x2="299.25" y2="226.01"/>
					<line class="st7" x1="293.65" y1="231.31" x2="298.38" y2="225.33"/>
					<line class="st7" x1="296.63" y1="223.95" x2="291.91" y2="229.94"/>
					<line class="st7" x1="292.78" y1="230.63" x2="297.5" y2="224.64"/>
					<line class="st7" x1="295.76" y1="223.26" x2="291.04" y2="229.25"/>
				</g>
				<g>
					<line class="st7" x1="289.81" y1="237.99" x2="294.53" y2="232"/>
					<line class="st7" x1="288.93" y1="237.3" x2="293.65" y2="231.31"/>
					<line class="st7" x1="291.91" y1="229.94" x2="287.19" y2="235.93"/>
					<line class="st7" x1="288.06" y1="236.61" x2="292.78" y2="230.63"/>
					<line class="st7" x1="291.04" y1="229.25" x2="286.32" y2="235.24"/>
				</g>
				<g>
					<line class="st7" x1="285.09" y1="243.98" x2="289.81" y2="237.99"/>
					<line class="st7" x1="284.21" y1="243.29" x2="288.93" y2="237.3"/>
					<line class="st7" x1="287.19" y1="235.93" x2="282.47" y2="241.91"/>
					<line class="st7" x1="283.34" y1="242.6" x2="288.06" y2="236.61"/>
					<line class="st7" x1="286.31" y1="235.24" x2="281.59" y2="241.23"/>
				</g>
				<g>
					<line class="st7" x1="280.37" y1="249.97" x2="285.09" y2="243.98"/>
					<line class="st7" x1="279.49" y1="249.28" x2="284.21" y2="243.29"/>
					<line class="st7" x1="282.47" y1="241.91" x2="277.75" y2="247.9"/>
					<line class="st7" x1="278.62" y1="248.59" x2="283.34" y2="242.6"/>
					<line class="st7" x1="281.59" y1="241.23" x2="276.87" y2="247.21"/>
				</g>
				<g>
					<line class="st7" x1="275.65" y1="255.95" x2="280.37" y2="249.97"/>
					<line class="st7" x1="274.77" y1="255.27" x2="279.49" y2="249.28"/>
					<line class="st7" x1="277.75" y1="247.9" x2="273.03" y2="253.89"/>
					<line class="st7" x1="273.9" y1="254.58" x2="278.62" y2="248.59"/>
					<line class="st7" x1="276.87" y1="247.21" x2="272.15" y2="253.2"/>
				</g>
				<g>
					<line class="st7" x1="270.92" y1="261.94" x2="275.65" y2="255.96"/>
					<line class="st7" x1="270.05" y1="261.25" x2="274.77" y2="255.27"/>
					<line class="st7" x1="273.03" y1="253.89" x2="268.31" y2="259.88"/>
					<line class="st7" x1="269.18" y1="260.57" x2="273.9" y2="254.58"/>
					<line class="st7" x1="272.15" y1="253.2" x2="267.43" y2="259.19"/>
				</g>
				<g>
					<line class="st7" x1="266.2" y1="267.93" x2="270.92" y2="261.94"/>
					<line class="st7" x1="265.33" y1="267.24" x2="270.05" y2="261.26"/>
					<line class="st7" x1="268.31" y1="259.88" x2="263.58" y2="265.87"/>
					<line class="st7" x1="264.46" y1="266.55" x2="269.18" y2="260.57"/>
					<line class="st7" x1="267.43" y1="259.19" x2="262.71" y2="265.18"/>
				</g>
				<g>
					<line class="st7" x1="261.48" y1="273.92" x2="266.2" y2="267.93"/>
					<line class="st7" x1="260.61" y1="273.23" x2="265.33" y2="267.24"/>
					<line class="st7" x1="263.58" y1="265.87" x2="258.86" y2="271.85"/>
					<line class="st7" x1="259.74" y1="272.54" x2="264.46" y2="266.55"/>
					<line class="st7" x1="262.71" y1="265.18" x2="257.99" y2="271.17"/>
				</g>
				<g>
					<line class="st7" x1="256.76" y1="279.91" x2="261.48" y2="273.92"/>
					<line class="st7" x1="255.89" y1="279.22" x2="260.61" y2="273.23"/>
					<line class="st7" x1="258.86" y1="271.85" x2="254.14" y2="277.84"/>
					<line class="st7" x1="255.02" y1="278.53" x2="259.74" y2="272.54"/>
					<line class="st7" x1="257.99" y1="271.17" x2="253.27" y2="277.15"/>
				</g>
				<g>
					<line class="st7" x1="252.04" y1="285.9" x2="256.76" y2="279.91"/>
					<line class="st7" x1="251.17" y1="285.21" x2="255.89" y2="279.22"/>
					<line class="st7" x1="254.14" y1="277.84" x2="249.42" y2="283.83"/>
					<line class="st7" x1="250.3" y1="284.52" x2="255.02" y2="278.53"/>
					<line class="st7" x1="253.27" y1="277.15" x2="248.55" y2="283.14"/>
				</g>
				<g>
					<line class="st7" x1="247.32" y1="291.88" x2="252.04" y2="285.9"/>
					<line class="st7" x1="246.45" y1="291.2" x2="251.17" y2="285.21"/>
					<line class="st7" x1="249.42" y1="283.83" x2="244.7" y2="289.82"/>
					<line class="st7" x1="245.58" y1="290.51" x2="250.3" y2="284.52"/>
					<line class="st7" x1="248.55" y1="283.14" x2="243.83" y2="289.13"/>
				</g>
				<g>
					<line class="st7" x1="242.6" y1="297.87" x2="247.32" y2="291.88"/>
					<line class="st7" x1="241.73" y1="297.18" x2="246.45" y2="291.2"/>
					<line class="st7" x1="244.7" y1="289.82" x2="239.98" y2="295.81"/>
					<line class="st7" x1="240.85" y1="296.49" x2="245.57" y2="290.51"/>
					<line class="st7" x1="243.83" y1="289.13" x2="239.11" y2="295.12"/>
				</g>
			</g>
		</g>
	</g>
	<g class="st6">
		<g>
			<g>
				<g>
					<line class="st7" x1="188.3" y1="27.92" x2="182.98" y2="22.32"/>
					<line class="st7" x1="187.49" y1="28.68" x2="182.17" y2="23.08"/>
					<line class="st7" x1="180.56" y1="24.61" x2="185.88" y2="30.21"/>
					<line class="st7" x1="186.69" y1="29.45" x2="181.36" y2="23.85"/>
					<line class="st7" x1="179.75" y1="25.38" x2="185.08" y2="30.98"/>
				</g>
				<g>
					<line class="st7" x1="193.62" y1="33.52" x2="188.3" y2="27.92"/>
					<line class="st7" x1="192.82" y1="34.28" x2="187.49" y2="28.68"/>
					<line class="st7" x1="185.88" y1="30.21" x2="191.21" y2="35.81"/>
					<line class="st7" x1="192.01" y1="35.05" x2="186.69" y2="29.45"/>
					<line class="st7" x1="185.08" y1="30.98" x2="190.4" y2="36.58"/>
				</g>
				<g>
					<line class="st7" x1="198.95" y1="39.12" x2="193.62" y2="33.52"/>
					<line class="st7" x1="198.14" y1="39.88" x2="192.82" y2="34.28"/>
					<line class="st7" x1="191.21" y1="35.81" x2="196.53" y2="41.41"/>
					<line class="st7" x1="197.34" y1="40.65" x2="192.01" y2="35.05"/>
					<line class="st7" x1="190.4" y1="36.58" x2="195.73" y2="42.18"/>
				</g>
				<g>
					<line class="st7" x1="204.27" y1="44.72" x2="198.95" y2="39.12"/>
					<line class="st7" x1="203.47" y1="45.48" x2="198.14" y2="39.88"/>
					<line class="st7" x1="196.53" y1="41.41" x2="201.86" y2="47.01"/>
					<line class="st7" x1="202.66" y1="46.25" x2="197.34" y2="40.65"/>
					<line class="st7" x1="195.73" y1="42.18" x2="201.05" y2="47.78"/>
				</g>
				<g>
					<line class="st7" x1="209.6" y1="50.32" x2="204.27" y2="44.72"/>
					<line class="st7" x1="208.79" y1="51.08" x2="203.47" y2="45.48"/>
					<line class="st7" x1="201.86" y1="47.02" x2="207.18" y2="52.62"/>
					<line class="st7" x1="207.99" y1="51.85" x2="202.66" y2="46.25"/>
					<line class="st7" x1="201.05" y1="47.78" x2="206.38" y2="53.38"/>
				</g>
				<g>
					<line class="st7" x1="214.92" y1="55.92" x2="209.6" y2="50.32"/>
					<line class="st7" x1="214.12" y1="56.68" x2="208.79" y2="51.08"/>
					<line class="st7" x1="207.18" y1="52.62" x2="212.51" y2="58.22"/>
					<line class="st7" x1="213.31" y1="57.45" x2="207.99" y2="51.85"/>
					<line class="st7" x1="206.38" y1="53.38" x2="211.7" y2="58.98"/>
				</g>
				<g>
					<line class="st7" x1="220.25" y1="61.52" x2="214.92" y2="55.92"/>
					<line class="st7" x1="219.44" y1="62.28" x2="214.12" y2="56.68"/>
					<line class="st7" x1="212.51" y1="58.22" x2="217.83" y2="63.82"/>
					<line class="st7" x1="218.64" y1="63.05" x2="213.31" y2="57.45"/>
					<line class="st7" x1="211.7" y1="58.98" x2="217.02" y2="64.58"/>
				</g>
				<g>
					<line class="st7" x1="225.57" y1="67.12" x2="220.25" y2="61.52"/>
					<line class="st7" x1="224.77" y1="67.88" x2="219.44" y2="62.28"/>
					<line class="st7" x1="217.83" y1="63.82" x2="223.15" y2="69.42"/>
					<line class="st7" x1="223.96" y1="68.65" x2="218.64" y2="63.05"/>
					<line class="st7" x1="217.02" y1="64.58" x2="222.35" y2="70.18"/>
				</g>
				<g>
					<line class="st7" x1="230.9" y1="72.72" x2="225.57" y2="67.12"/>
					<line class="st7" x1="230.09" y1="73.49" x2="224.77" y2="67.89"/>
					<line class="st7" x1="223.15" y1="69.42" x2="228.48" y2="75.02"/>
					<line class="st7" x1="229.28" y1="74.25" x2="223.96" y2="68.65"/>
					<line class="st7" x1="222.35" y1="70.18" x2="227.67" y2="75.78"/>
				</g>
				<g>
					<line class="st7" x1="236.22" y1="78.32" x2="230.9" y2="72.72"/>
					<line class="st7" x1="235.42" y1="79.09" x2="230.09" y2="73.49"/>
					<line class="st7" x1="228.48" y1="75.02" x2="233.8" y2="80.62"/>
					<line class="st7" x1="234.61" y1="79.85" x2="229.28" y2="74.25"/>
					<line class="st7" x1="227.67" y1="75.78" x2="233" y2="81.38"/>
				</g>
				<g>
					<line class="st7" x1="241.55" y1="83.92" x2="236.22" y2="78.32"/>
					<line class="st7" x1="240.74" y1="84.69" x2="235.42" y2="79.09"/>
					<line class="st7" x1="233.8" y1="80.62" x2="239.13" y2="86.22"/>
					<line class="st7" x1="239.93" y1="85.45" x2="234.61" y2="79.85"/>
					<line class="st7" x1="233" y1="81.38" x2="238.32" y2="86.98"/>
				</g>
				<g>
					<line class="st7" x1="246.87" y1="89.52" x2="241.55" y2="83.92"/>
					<line class="st7" x1="246.06" y1="90.29" x2="240.74" y2="84.69"/>
					<line class="st7" x1="239.13" y1="86.22" x2="244.45" y2="91.82"/>
					<line class="st7" x1="245.26" y1="91.05" x2="239.93" y2="85.45"/>
					<line class="st7" x1="238.32" y1="86.98" x2="243.65" y2="92.59"/>
				</g>
				<g>
					<line class="st7" x1="252.19" y1="95.12" x2="246.87" y2="89.52"/>
					<line class="st7" x1="251.39" y1="95.89" x2="246.06" y2="90.29"/>
					<line class="st7" x1="244.45" y1="91.82" x2="249.78" y2="97.42"/>
					<line class="st7" x1="250.58" y1="96.65" x2="245.26" y2="91.05"/>
					<line class="st7" x1="243.65" y1="92.59" x2="248.97" y2="98.19"/>
				</g>
				<g>
					<line class="st7" x1="257.52" y1="100.72" x2="252.19" y2="95.12"/>
					<line class="st7" x1="256.71" y1="101.49" x2="251.39" y2="95.89"/>
					<line class="st7" x1="249.78" y1="97.42" x2="255.1" y2="103.02"/>
					<line class="st7" x1="255.91" y1="102.25" x2="250.58" y2="96.65"/>
					<line class="st7" x1="248.97" y1="98.19" x2="254.3" y2="103.79"/>
				</g>
				<g>
					<line class="st7" x1="262.84" y1="106.32" x2="257.52" y2="100.72"/>
					<line class="st7" x1="262.04" y1="107.09" x2="256.71" y2="101.49"/>
					<line class="st7" x1="255.1" y1="103.02" x2="260.43" y2="108.62"/>
					<line class="st7" x1="261.23" y1="107.85" x2="255.91" y2="102.25"/>
					<line class="st7" x1="254.3" y1="103.79" x2="259.62" y2="109.39"/>
				</g>
				<g>
					<line class="st7" x1="268.17" y1="111.92" x2="262.84" y2="106.32"/>
					<line class="st7" x1="267.36" y1="112.69" x2="262.04" y2="107.09"/>
					<line class="st7" x1="260.43" y1="108.62" x2="265.75" y2="114.22"/>
					<line class="st7" x1="266.56" y1="113.46" x2="261.23" y2="107.86"/>
					<line class="st7" x1="259.62" y1="109.39" x2="264.95" y2="114.99"/>
				</g>
				<g>
					<line class="st7" x1="273.49" y1="117.52" x2="268.17" y2="111.92"/>
					<line class="st7" x1="272.69" y1="118.29" x2="267.36" y2="112.69"/>
					<line class="st7" x1="265.75" y1="114.22" x2="271.08" y2="119.82"/>
					<line class="st7" x1="271.88" y1="119.06" x2="266.56" y2="113.46"/>
					<line class="st7" x1="264.95" y1="114.99" x2="270.27" y2="120.59"/>
				</g>
				<g>
					<line class="st7" x1="278.82" y1="123.12" x2="273.49" y2="117.52"/>
					<line class="st7" x1="278.01" y1="123.89" x2="272.69" y2="118.29"/>
					<line class="st7" x1="271.08" y1="119.82" x2="276.4" y2="125.42"/>
					<line class="st7" x1="277.21" y1="124.66" x2="271.88" y2="119.06"/>
					<line class="st7" x1="270.27" y1="120.59" x2="275.59" y2="126.19"/>
				</g>
				<g>
					<line class="st7" x1="284.14" y1="128.72" x2="278.82" y2="123.12"/>
					<line class="st7" x1="283.34" y1="129.49" x2="278.01" y2="123.89"/>
					<line class="st7" x1="276.4" y1="125.42" x2="281.72" y2="131.02"/>
					<line class="st7" x1="282.53" y1="130.26" x2="277.21" y2="124.66"/>
					<line class="st7" x1="275.59" y1="126.19" x2="280.92" y2="131.79"/>
				</g>
				<g>
					<line class="st7" x1="289.47" y1="134.33" x2="284.14" y2="128.73"/>
					<line class="st7" x1="288.66" y1="135.09" x2="283.34" y2="129.49"/>
					<line class="st7" x1="281.73" y1="131.02" x2="287.05" y2="136.62"/>
					<line class="st7" x1="287.85" y1="135.86" x2="282.53" y2="130.26"/>
					<line class="st7" x1="280.92" y1="131.79" x2="286.24" y2="137.39"/>
				</g>
				<g>
					<line class="st7" x1="294.79" y1="139.93" x2="289.47" y2="134.33"/>
					<line class="st7" x1="293.99" y1="140.69" x2="288.66" y2="135.09"/>
					<line class="st7" x1="287.05" y1="136.62" x2="292.37" y2="142.22"/>
					<line class="st7" x1="293.18" y1="141.46" x2="287.86" y2="135.86"/>
					<line class="st7" x1="286.24" y1="137.39" x2="291.57" y2="142.99"/>
				</g>
				<g>
					<line class="st7" x1="300.12" y1="145.53" x2="294.79" y2="139.93"/>
					<line class="st7" x1="299.31" y1="146.29" x2="293.99" y2="140.69"/>
					<line class="st7" x1="292.37" y1="142.22" x2="297.7" y2="147.82"/>
					<line class="st7" x1="298.5" y1="147.06" x2="293.18" y2="141.46"/>
					<line class="st7" x1="291.57" y1="142.99" x2="296.89" y2="148.59"/>
				</g>
				<g>
					<line class="st7" x1="305.44" y1="151.13" x2="300.12" y2="145.53"/>
					<line class="st7" x1="304.63" y1="151.89" x2="299.31" y2="146.29"/>
					<line class="st7" x1="297.7" y1="147.82" x2="303.02" y2="153.42"/>
					<line class="st7" x1="303.83" y1="152.66" x2="298.5" y2="147.06"/>
					<line class="st7" x1="296.89" y1="148.59" x2="302.22" y2="154.19"/>
				</g>
				<g>
					<line class="st7" x1="310.76" y1="156.73" x2="305.44" y2="151.13"/>
					<line class="st7" x1="309.96" y1="157.49" x2="304.63" y2="151.89"/>
					<line class="st7" x1="303.02" y1="153.43" x2="308.35" y2="159.03"/>
					<line class="st7" x1="309.15" y1="158.26" x2="303.83" y2="152.66"/>
					<line class="st7" x1="302.22" y1="154.19" x2="307.54" y2="159.79"/>
				</g>
				<g>
					<line class="st7" x1="316.09" y1="162.33" x2="310.76" y2="156.73"/>
					<line class="st7" x1="315.28" y1="163.09" x2="309.96" y2="157.49"/>
					<line class="st7" x1="308.35" y1="159.03" x2="313.67" y2="164.63"/>
					<line class="st7" x1="314.48" y1="163.86" x2="309.15" y2="158.26"/>
					<line class="st7" x1="307.54" y1="159.79" x2="312.87" y2="165.39"/>
				</g>
				<g>
					<line class="st7" x1="321.41" y1="167.93" x2="316.09" y2="162.33"/>
					<line class="st7" x1="320.61" y1="168.69" x2="315.28" y2="163.09"/>
					<line class="st7" x1="313.67" y1="164.63" x2="319" y2="170.23"/>
					<line class="st7" x1="319.8" y1="169.46" x2="314.48" y2="163.86"/>
					<line class="st7" x1="312.87" y1="165.39" x2="318.19" y2="170.99"/>
				</g>
				<g>
					<line class="st7" x1="326.74" y1="173.53" x2="321.41" y2="167.93"/>
					<line class="st7" x1="325.93" y1="174.29" x2="320.61" y2="168.69"/>
					<line class="st7" x1="319" y1="170.23" x2="324.32" y2="175.83"/>
					<line class="st7" x1="325.13" y1="175.06" x2="319.8" y2="169.46"/>
					<line class="st7" x1="318.19" y1="170.99" x2="323.52" y2="176.59"/>
				</g>
				<g>
					<line class="st7" x1="332.06" y1="179.13" x2="326.74" y2="173.53"/>
					<line class="st7" x1="331.26" y1="179.9" x2="325.93" y2="174.3"/>
					<line class="st7" x1="324.32" y1="175.83" x2="329.65" y2="181.43"/>
					<line class="st7" x1="330.45" y1="180.66" x2="325.13" y2="175.06"/>
					<line class="st7" x1="323.52" y1="176.59" x2="328.84" y2="182.19"/>
				</g>
			</g>
		</g>
	</g>
	<g class="st6">
		<g>
			<g>
				<g>
					<line class="st7" x1="21.9" y1="407.28" x2="17.15" y2="413.27"/>
					<line class="st7" x1="22.77" y1="407.97" x2="18.02" y2="413.97"/>
					<line class="st7" x1="19.76" y1="415.35" x2="24.52" y2="409.36"/>
					<line class="st7" x1="23.65" y1="408.67" x2="18.89" y2="414.66"/>
					<line class="st7" x1="20.63" y1="416.04" x2="25.39" y2="410.05"/>
				</g>
				<g>
					<line class="st7" x1="26.66" y1="401.29" x2="21.9" y2="407.28"/>
					<line class="st7" x1="27.53" y1="401.98" x2="22.77" y2="407.97"/>
					<line class="st7" x1="24.52" y1="409.36" x2="29.27" y2="403.37"/>
					<line class="st7" x1="28.4" y1="402.68" x2="23.65" y2="408.67"/>
					<line class="st7" x1="25.39" y1="410.05" x2="30.14" y2="404.06"/>
				</g>
				<g>
					<line class="st7" x1="31.41" y1="395.3" x2="26.66" y2="401.29"/>
					<line class="st7" x1="32.28" y1="395.99" x2="27.53" y2="401.98"/>
					<line class="st7" x1="29.27" y1="403.37" x2="34.02" y2="397.37"/>
					<line class="st7" x1="33.15" y1="396.68" x2="28.4" y2="402.67"/>
					<line class="st7" x1="30.14" y1="404.06" x2="34.89" y2="398.07"/>
				</g>
				<g>
					<line class="st7" x1="36.16" y1="389.31" x2="31.41" y2="395.3"/>
					<line class="st7" x1="37.03" y1="390" x2="32.28" y2="395.99"/>
					<line class="st7" x1="34.02" y1="397.37" x2="38.78" y2="391.38"/>
					<line class="st7" x1="37.91" y1="390.69" x2="33.15" y2="396.68"/>
					<line class="st7" x1="34.89" y1="398.07" x2="39.65" y2="392.08"/>
				</g>
				<g>
					<line class="st7" x1="40.92" y1="383.32" x2="36.16" y2="389.31"/>
					<line class="st7" x1="41.79" y1="384.01" x2="37.03" y2="390"/>
					<line class="st7" x1="38.78" y1="391.38" x2="43.53" y2="385.39"/>
					<line class="st7" x1="42.66" y1="384.7" x2="37.91" y2="390.69"/>
					<line class="st7" x1="39.65" y1="392.07" x2="44.4" y2="386.08"/>
				</g>
				<g>
					<line class="st7" x1="45.67" y1="377.33" x2="40.92" y2="383.32"/>
					<line class="st7" x1="46.54" y1="378.02" x2="41.79" y2="384.01"/>
					<line class="st7" x1="43.53" y1="385.39" x2="48.28" y2="379.4"/>
					<line class="st7" x1="47.41" y1="378.71" x2="42.66" y2="384.7"/>
					<line class="st7" x1="44.4" y1="386.08" x2="49.15" y2="380.09"/>
				</g>
				<g>
					<line class="st7" x1="50.42" y1="371.34" x2="45.67" y2="377.33"/>
					<line class="st7" x1="51.29" y1="372.03" x2="46.54" y2="378.02"/>
					<line class="st7" x1="48.28" y1="379.4" x2="53.04" y2="373.41"/>
					<line class="st7" x1="52.17" y1="372.72" x2="47.41" y2="378.71"/>
					<line class="st7" x1="49.15" y1="380.09" x2="53.91" y2="374.1"/>
				</g>
				<g>
					<line class="st7" x1="55.18" y1="365.35" x2="50.42" y2="371.34"/>
					<line class="st7" x1="56.05" y1="366.04" x2="51.3" y2="372.03"/>
					<line class="st7" x1="53.04" y1="373.41" x2="57.79" y2="367.42"/>
					<line class="st7" x1="56.92" y1="366.73" x2="52.17" y2="372.72"/>
					<line class="st7" x1="53.91" y1="374.1" x2="58.66" y2="368.11"/>
				</g>
				<g>
					<line class="st7" x1="59.93" y1="359.36" x2="55.18" y2="365.35"/>
					<line class="st7" x1="60.8" y1="360.05" x2="56.05" y2="366.04"/>
					<line class="st7" x1="57.79" y1="367.42" x2="62.54" y2="361.43"/>
					<line class="st7" x1="61.67" y1="360.74" x2="56.92" y2="366.73"/>
					<line class="st7" x1="58.66" y1="368.11" x2="63.41" y2="362.12"/>
				</g>
				<g>
					<line class="st7" x1="64.68" y1="353.37" x2="59.93" y2="359.36"/>
					<line class="st7" x1="65.55" y1="354.06" x2="60.8" y2="360.05"/>
					<line class="st7" x1="62.54" y1="361.43" x2="67.3" y2="355.44"/>
					<line class="st7" x1="66.43" y1="354.75" x2="61.67" y2="360.74"/>
					<line class="st7" x1="63.41" y1="362.12" x2="68.17" y2="356.13"/>
				</g>
				<g>
					<line class="st7" x1="69.44" y1="347.37" x2="64.68" y2="353.37"/>
					<line class="st7" x1="70.31" y1="348.07" x2="65.56" y2="354.06"/>
					<line class="st7" x1="67.3" y1="355.44" x2="72.05" y2="349.45"/>
					<line class="st7" x1="71.18" y1="348.76" x2="66.43" y2="354.75"/>
					<line class="st7" x1="68.17" y1="356.13" x2="72.92" y2="350.14"/>
				</g>
				<g>
					<line class="st7" x1="74.19" y1="341.38" x2="69.44" y2="347.37"/>
					<line class="st7" x1="75.06" y1="342.07" x2="70.31" y2="348.07"/>
					<line class="st7" x1="72.05" y1="349.45" x2="76.8" y2="343.46"/>
					<line class="st7" x1="75.93" y1="342.77" x2="71.18" y2="348.76"/>
					<line class="st7" x1="72.92" y1="350.14" x2="77.67" y2="344.15"/>
				</g>
				<g>
					<line class="st7" x1="78.94" y1="335.39" x2="74.19" y2="341.38"/>
					<line class="st7" x1="79.82" y1="336.08" x2="75.06" y2="342.07"/>
					<line class="st7" x1="76.8" y1="343.46" x2="81.56" y2="337.47"/>
					<line class="st7" x1="80.69" y1="336.77" x2="75.93" y2="342.77"/>
					<line class="st7" x1="77.67" y1="344.15" x2="82.43" y2="338.16"/>
				</g>
				<g>
					<line class="st7" x1="83.7" y1="329.4" x2="78.94" y2="335.39"/>
					<line class="st7" x1="84.57" y1="330.09" x2="79.82" y2="336.08"/>
					<line class="st7" x1="81.56" y1="337.47" x2="86.31" y2="331.47"/>
					<line class="st7" x1="85.44" y1="330.78" x2="80.69" y2="336.77"/>
					<line class="st7" x1="82.43" y1="338.16" x2="87.18" y2="332.17"/>
				</g>
				<g>
					<line class="st7" x1="88.45" y1="323.41" x2="83.7" y2="329.4"/>
					<line class="st7" x1="89.32" y1="324.1" x2="84.57" y2="330.09"/>
					<line class="st7" x1="86.31" y1="331.47" x2="91.06" y2="325.48"/>
					<line class="st7" x1="90.19" y1="324.79" x2="85.44" y2="330.78"/>
					<line class="st7" x1="87.18" y1="332.17" x2="91.93" y2="326.17"/>
				</g>
				<g>
					<line class="st7" x1="93.2" y1="317.42" x2="88.45" y2="323.41"/>
					<line class="st7" x1="94.08" y1="318.11" x2="89.32" y2="324.1"/>
					<line class="st7" x1="91.06" y1="325.48" x2="95.82" y2="319.49"/>
					<line class="st7" x1="94.95" y1="318.8" x2="90.19" y2="324.79"/>
					<line class="st7" x1="91.94" y1="326.17" x2="96.69" y2="320.18"/>
				</g>
				<g>
					<line class="st7" x1="97.96" y1="311.43" x2="93.2" y2="317.42"/>
					<line class="st7" x1="98.83" y1="312.12" x2="94.08" y2="318.11"/>
					<line class="st7" x1="95.82" y1="319.49" x2="100.57" y2="313.5"/>
					<line class="st7" x1="99.7" y1="312.81" x2="94.95" y2="318.8"/>
					<line class="st7" x1="96.69" y1="320.18" x2="101.44" y2="314.19"/>
				</g>
				<g>
					<line class="st7" x1="102.71" y1="305.44" x2="97.96" y2="311.43"/>
					<line class="st7" x1="103.58" y1="306.13" x2="98.83" y2="312.12"/>
					<line class="st7" x1="100.57" y1="313.5" x2="105.32" y2="307.51"/>
					<line class="st7" x1="104.45" y1="306.82" x2="99.7" y2="312.81"/>
					<line class="st7" x1="101.44" y1="314.19" x2="106.2" y2="308.2"/>
				</g>
				<g>
					<line class="st7" x1="107.46" y1="299.45" x2="102.71" y2="305.44"/>
					<line class="st7" x1="108.34" y1="300.14" x2="103.58" y2="306.13"/>
					<line class="st7" x1="105.32" y1="307.51" x2="110.08" y2="301.52"/>
					<line class="st7" x1="109.21" y1="300.83" x2="104.45" y2="306.82"/>
					<line class="st7" x1="106.2" y1="308.2" x2="110.95" y2="302.21"/>
				</g>
			</g>
		</g>
	</g>
	<g class="st6">
		<g>
			<g>
				<g>
					<line class="st7" x1="130.46" y1="270.25" x2="125.5" y2="276.57"/>
					<line class="st7" x1="131.34" y1="270.93" x2="126.38" y2="277.26"/>
					<line class="st7" x1="128.13" y1="278.63" x2="133.09" y2="272.31"/>
					<line class="st7" x1="132.21" y1="271.62" x2="127.25" y2="277.95"/>
					<line class="st7" x1="129" y1="279.32" x2="133.96" y2="272.99"/>
				</g>
				<g>
					<line class="st7" x1="135.43" y1="263.92" x2="130.47" y2="270.25"/>
					<line class="st7" x1="136.3" y1="264.61" x2="131.34" y2="270.93"/>
					<line class="st7" x1="133.09" y1="272.31" x2="138.05" y2="265.98"/>
					<line class="st7" x1="137.18" y1="265.29" x2="132.21" y2="271.62"/>
					<line class="st7" x1="133.96" y1="272.99" x2="138.93" y2="266.67"/>
				</g>
				<g>
					<line class="st7" x1="140.39" y1="257.6" x2="135.43" y2="263.92"/>
					<line class="st7" x1="141.26" y1="258.28" x2="136.3" y2="264.61"/>
					<line class="st7" x1="138.05" y1="265.98" x2="143.01" y2="259.65"/>
					<line class="st7" x1="142.14" y1="258.97" x2="137.18" y2="265.29"/>
					<line class="st7" x1="138.93" y1="266.67" x2="143.89" y2="260.34"/>
				</g>
				<g>
					<line class="st7" x1="145.35" y1="251.27" x2="140.39" y2="257.6"/>
					<line class="st7" x1="146.22" y1="251.96" x2="141.26" y2="258.28"/>
					<line class="st7" x1="143.01" y1="259.65" x2="147.97" y2="253.33"/>
					<line class="st7" x1="147.1" y1="252.64" x2="142.14" y2="258.97"/>
					<line class="st7" x1="143.89" y1="260.34" x2="148.85" y2="254.01"/>
				</g>
				<g>
					<line class="st7" x1="150.31" y1="244.94" x2="145.35" y2="251.27"/>
					<line class="st7" x1="151.19" y1="245.63" x2="146.22" y2="251.96"/>
					<line class="st7" x1="147.97" y1="253.33" x2="152.94" y2="247"/>
					<line class="st7" x1="152.06" y1="246.32" x2="147.1" y2="252.64"/>
					<line class="st7" x1="148.85" y1="254.01" x2="153.81" y2="247.69"/>
				</g>
			</g>
		</g>
	</g>
	<g class="st6">
		<g>
			<g>
				<g>
					<line class="st7" x1="161.97" y1="570.21" x2="167.14" y2="575.64"/>
					<line class="st7" x1="162.78" y1="569.44" x2="167.94" y2="574.87"/>
					<line class="st7" x1="169.55" y1="573.34" x2="164.39" y2="567.91"/>
					<line class="st7" x1="163.59" y1="568.68" x2="168.75" y2="574.1"/>
					<line class="st7" x1="170.36" y1="572.57" x2="165.2" y2="567.14"/>
				</g>
				<g>
					<line class="st7" x1="156.81" y1="564.78" x2="161.97" y2="570.21"/>
					<line class="st7" x1="157.62" y1="564.02" x2="162.78" y2="569.44"/>
					<line class="st7" x1="164.39" y1="567.91" x2="159.23" y2="562.48"/>
					<line class="st7" x1="158.42" y1="563.25" x2="163.59" y2="568.68"/>
					<line class="st7" x1="165.2" y1="567.14" x2="160.03" y2="561.72"/>
				</g>
				<g>
					<line class="st7" x1="151.65" y1="559.36" x2="156.81" y2="564.78"/>
					<line class="st7" x1="152.45" y1="558.59" x2="157.62" y2="564.02"/>
					<line class="st7" x1="159.23" y1="562.48" x2="154.06" y2="557.06"/>
					<line class="st7" x1="153.26" y1="557.82" x2="158.42" y2="563.25"/>
					<line class="st7" x1="160.03" y1="561.72" x2="154.87" y2="556.29"/>
				</g>
				<g>
					<line class="st7" x1="146.48" y1="553.93" x2="151.65" y2="559.36"/>
					<line class="st7" x1="147.29" y1="553.16" x2="152.45" y2="558.59"/>
					<line class="st7" x1="154.06" y1="557.06" x2="148.9" y2="551.63"/>
					<line class="st7" x1="148.09" y1="552.4" x2="153.26" y2="557.82"/>
					<line class="st7" x1="154.87" y1="556.29" x2="149.7" y2="550.86"/>
				</g>
				<g>
					<line class="st7" x1="141.32" y1="548.5" x2="146.48" y2="553.93"/>
					<line class="st7" x1="142.12" y1="547.74" x2="147.29" y2="553.16"/>
					<line class="st7" x1="148.9" y1="551.63" x2="143.73" y2="546.2"/>
					<line class="st7" x1="142.93" y1="546.97" x2="148.09" y2="552.4"/>
					<line class="st7" x1="149.7" y1="550.86" x2="144.54" y2="545.44"/>
				</g>
				<g>
					<line class="st7" x1="136.15" y1="543.07" x2="141.32" y2="548.5"/>
					<line class="st7" x1="136.96" y1="542.31" x2="142.12" y2="547.74"/>
					<line class="st7" x1="143.73" y1="546.2" x2="138.57" y2="540.78"/>
					<line class="st7" x1="137.76" y1="541.54" x2="142.93" y2="546.97"/>
					<line class="st7" x1="144.54" y1="545.44" x2="139.37" y2="540.01"/>
				</g>
				<g>
					<line class="st7" x1="130.99" y1="537.65" x2="136.15" y2="543.07"/>
					<line class="st7" x1="131.79" y1="536.88" x2="136.96" y2="542.31"/>
					<line class="st7" x1="138.57" y1="540.78" x2="133.4" y2="535.35"/>
					<line class="st7" x1="132.6" y1="536.11" x2="137.76" y2="541.54"/>
					<line class="st7" x1="139.37" y1="540.01" x2="134.21" y2="534.58"/>
				</g>
				<g>
					<line class="st7" x1="125.82" y1="532.22" x2="130.99" y2="537.65"/>
					<line class="st7" x1="126.63" y1="531.45" x2="131.79" y2="536.88"/>
					<line class="st7" x1="133.4" y1="535.35" x2="128.24" y2="529.92"/>
					<line class="st7" x1="127.44" y1="530.69" x2="132.6" y2="536.11"/>
					<line class="st7" x1="134.21" y1="534.58" x2="129.05" y2="529.16"/>
				</g>
				<g>
					<line class="st7" x1="120.66" y1="526.79" x2="125.82" y2="532.22"/>
					<line class="st7" x1="121.47" y1="526.03" x2="126.63" y2="531.45"/>
					<line class="st7" x1="128.24" y1="529.92" x2="123.08" y2="524.49"/>
					<line class="st7" x1="122.27" y1="525.26" x2="127.44" y2="530.69"/>
					<line class="st7" x1="129.05" y1="529.15" x2="123.88" y2="523.73"/>
				</g>
				<g>
					<line class="st7" x1="115.5" y1="521.37" x2="120.66" y2="526.79"/>
					<line class="st7" x1="116.3" y1="520.6" x2="121.47" y2="526.03"/>
					<line class="st7" x1="123.08" y1="524.49" x2="117.91" y2="519.07"/>
					<line class="st7" x1="117.11" y1="519.83" x2="122.27" y2="525.26"/>
					<line class="st7" x1="123.88" y1="523.73" x2="118.72" y2="518.3"/>
				</g>
				<g>
					<line class="st7" x1="110.33" y1="515.94" x2="115.5" y2="521.37"/>
					<line class="st7" x1="111.14" y1="515.17" x2="116.3" y2="520.6"/>
					<line class="st7" x1="117.91" y1="519.07" x2="112.75" y2="513.64"/>
					<line class="st7" x1="111.94" y1="514.41" x2="117.11" y2="519.83"/>
					<line class="st7" x1="118.72" y1="518.3" x2="113.55" y2="512.87"/>
				</g>
				<g>
					<line class="st7" x1="105.17" y1="510.51" x2="110.33" y2="515.94"/>
					<line class="st7" x1="105.97" y1="509.75" x2="111.14" y2="515.17"/>
					<line class="st7" x1="112.75" y1="513.64" x2="107.58" y2="508.21"/>
					<line class="st7" x1="106.78" y1="508.98" x2="111.94" y2="514.41"/>
					<line class="st7" x1="113.55" y1="512.87" x2="108.39" y2="507.45"/>
				</g>
				<g>
					<line class="st7" x1="100" y1="505.09" x2="105.17" y2="510.51"/>
					<line class="st7" x1="100.81" y1="504.32" x2="105.97" y2="509.75"/>
					<line class="st7" x1="107.58" y1="508.21" x2="102.42" y2="502.79"/>
					<line class="st7" x1="101.61" y1="503.55" x2="106.78" y2="508.98"/>
					<line class="st7" x1="108.39" y1="507.45" x2="103.22" y2="502.02"/>
				</g>
				<g>
					<line class="st7" x1="94.84" y1="499.66" x2="100" y2="505.09"/>
					<line class="st7" x1="95.64" y1="498.89" x2="100.81" y2="504.32"/>
					<line class="st7" x1="102.42" y1="502.79" x2="97.25" y2="497.36"/>
					<line class="st7" x1="96.45" y1="498.13" x2="101.61" y2="503.55"/>
					<line class="st7" x1="103.22" y1="502.02" x2="98.06" y2="496.59"/>
				</g>
				<g>
					<line class="st7" x1="89.67" y1="494.23" x2="94.84" y2="499.66"/>
					<line class="st7" x1="90.48" y1="493.47" x2="95.64" y2="498.89"/>
					<line class="st7" x1="97.25" y1="497.36" x2="92.09" y2="491.93"/>
					<line class="st7" x1="91.29" y1="492.7" x2="96.45" y2="498.13"/>
					<line class="st7" x1="98.06" y1="496.59" x2="92.9" y2="491.17"/>
				</g>
				<g>
					<line class="st7" x1="84.51" y1="488.8" x2="89.67" y2="494.23"/>
					<line class="st7" x1="85.32" y1="488.04" x2="90.48" y2="493.47"/>
					<line class="st7" x1="92.09" y1="491.93" x2="86.93" y2="486.51"/>
					<line class="st7" x1="86.12" y1="487.27" x2="91.28" y2="492.7"/>
					<line class="st7" x1="92.9" y1="491.17" x2="87.73" y2="485.74"/>
				</g>
				<g>
					<line class="st7" x1="79.35" y1="483.38" x2="84.51" y2="488.8"/>
					<line class="st7" x1="80.15" y1="482.61" x2="85.31" y2="488.04"/>
					<line class="st7" x1="86.93" y1="486.51" x2="81.76" y2="481.08"/>
					<line class="st7" x1="80.96" y1="481.84" x2="86.12" y2="487.27"/>
					<line class="st7" x1="87.73" y1="485.74" x2="82.57" y2="480.31"/>
				</g>
				<g>
					<line class="st7" x1="74.18" y1="477.95" x2="79.35" y2="483.38"/>
					<line class="st7" x1="74.99" y1="477.18" x2="80.15" y2="482.61"/>
					<line class="st7" x1="81.76" y1="481.08" x2="76.6" y2="475.65"/>
					<line class="st7" x1="75.79" y1="476.42" x2="80.96" y2="481.84"/>
					<line class="st7" x1="82.57" y1="480.31" x2="77.4" y2="474.89"/>
				</g>
				<g>
					<line class="st7" x1="69.02" y1="472.52" x2="74.18" y2="477.95"/>
					<line class="st7" x1="69.82" y1="471.76" x2="74.99" y2="477.18"/>
					<line class="st7" x1="76.6" y1="475.65" x2="71.43" y2="470.22"/>
					<line class="st7" x1="70.63" y1="470.99" x2="75.79" y2="476.42"/>
					<line class="st7" x1="77.4" y1="474.89" x2="72.24" y2="469.46"/>
				</g>
				<g>
					<line class="st7" x1="63.85" y1="467.1" x2="69.02" y2="472.52"/>
					<line class="st7" x1="64.66" y1="466.33" x2="69.82" y2="471.76"/>
					<line class="st7" x1="71.43" y1="470.22" x2="66.27" y2="464.8"/>
					<line class="st7" x1="65.46" y1="465.56" x2="70.63" y2="470.99"/>
					<line class="st7" x1="72.24" y1="469.46" x2="67.07" y2="464.03"/>
				</g>
				<g>
					<line class="st7" x1="58.69" y1="461.67" x2="63.85" y2="467.1"/>
					<line class="st7" x1="59.49" y1="460.9" x2="64.66" y2="466.33"/>
					<line class="st7" x1="66.27" y1="464.8" x2="61.1" y2="459.37"/>
					<line class="st7" x1="60.3" y1="460.14" x2="65.46" y2="465.56"/>
					<line class="st7" x1="67.07" y1="464.03" x2="61.91" y2="458.6"/>
				</g>
				<g>
					<line class="st7" x1="53.52" y1="456.24" x2="58.69" y2="461.67"/>
					<line class="st7" x1="54.33" y1="455.48" x2="59.49" y2="460.9"/>
					<line class="st7" x1="61.1" y1="459.37" x2="55.94" y2="453.94"/>
					<line class="st7" x1="55.14" y1="454.71" x2="60.3" y2="460.14"/>
					<line class="st7" x1="61.91" y1="458.6" x2="56.75" y2="453.18"/>
				</g>
				<g>
					<line class="st7" x1="48.36" y1="450.82" x2="53.52" y2="456.24"/>
					<line class="st7" x1="49.17" y1="450.05" x2="54.33" y2="455.48"/>
					<line class="st7" x1="55.94" y1="453.94" x2="50.78" y2="448.52"/>
					<line class="st7" x1="49.97" y1="449.28" x2="55.13" y2="454.71"/>
					<line class="st7" x1="56.75" y1="453.18" x2="51.58" y2="447.75"/>
				</g>
				<g>
					<line class="st7" x1="43.2" y1="445.39" x2="48.36" y2="450.82"/>
					<line class="st7" x1="44" y1="444.62" x2="49.16" y2="450.05"/>
					<line class="st7" x1="50.78" y1="448.52" x2="45.61" y2="443.09"/>
					<line class="st7" x1="44.81" y1="443.86" x2="49.97" y2="449.28"/>
					<line class="st7" x1="51.58" y1="447.75" x2="46.42" y2="442.32"/>
				</g>
				<g>
					<line class="st7" x1="38.03" y1="439.96" x2="43.2" y2="445.39"/>
					<line class="st7" x1="38.84" y1="439.2" x2="44" y2="444.62"/>
					<line class="st7" x1="45.61" y1="443.09" x2="40.45" y2="437.66"/>
					<line class="st7" x1="39.64" y1="438.43" x2="44.81" y2="443.86"/>
					<line class="st7" x1="46.42" y1="442.32" x2="41.25" y2="436.9"/>
				</g>
				<g>
					<line class="st7" x1="32.87" y1="434.53" x2="38.03" y2="439.96"/>
					<line class="st7" x1="33.67" y1="433.77" x2="38.84" y2="439.2"/>
					<line class="st7" x1="40.45" y1="437.66" x2="35.28" y2="432.24"/>
					<line class="st7" x1="34.48" y1="433" x2="39.64" y2="438.43"/>
					<line class="st7" x1="41.25" y1="436.9" x2="36.09" y2="431.47"/>
				</g>
				<g>
					<line class="st7" x1="27.7" y1="429.11" x2="32.87" y2="434.53"/>
					<line class="st7" x1="28.51" y1="428.34" x2="33.67" y2="433.77"/>
					<line class="st7" x1="35.28" y1="432.24" x2="30.12" y2="426.81"/>
					<line class="st7" x1="29.31" y1="427.57" x2="34.48" y2="433"/>
					<line class="st7" x1="36.09" y1="431.47" x2="30.92" y2="426.04"/>
				</g>
				<g>
					<line class="st7" x1="22.54" y1="423.68" x2="27.7" y2="429.11"/>
					<line class="st7" x1="23.34" y1="422.91" x2="28.51" y2="428.34"/>
					<line class="st7" x1="30.12" y1="426.81" x2="24.95" y2="421.38"/>
					<line class="st7" x1="24.15" y1="422.15" x2="29.31" y2="427.57"/>
					<line class="st7" x1="30.92" y1="426.04" x2="25.76" y2="420.62"/>
				</g>
				<g>
					<line class="st7" x1="17.37" y1="418.25" x2="22.54" y2="423.68"/>
					<line class="st7" x1="18.18" y1="417.49" x2="23.34" y2="422.91"/>
					<line class="st7" x1="24.95" y1="421.38" x2="19.79" y2="415.95"/>
					<line class="st7" x1="18.98" y1="416.72" x2="24.15" y2="422.15"/>
					<line class="st7" x1="25.76" y1="420.62" x2="20.6" y2="415.19"/>
				</g>
			</g>
		</g>
	</g>
	<line class="st4" x1="160.17" y1="3.49" x2="9" y2="195.35"/>
	<polyline class="st8" points="180.22,24.93 160.17,3.49 9,195.35 178.08,372.98 196.14,350.09 46.43,193.33 	"/>
	<g>
		<path d="M389.01,431.05c1.88,1.16,4.63,2.12,7.53,2.12c4.29,0,6.8-2.27,6.8-5.55c0-3.04-1.74-4.78-6.13-6.46
			c-5.31-1.88-8.59-4.63-8.59-9.21c0-5.07,4.2-8.83,10.52-8.83c3.33,0,5.74,0.77,7.19,1.59l-1.16,3.43
			c-1.06-0.58-3.23-1.54-6.17-1.54c-4.44,0-6.13,2.65-6.13,4.87c0,3.04,1.98,4.53,6.46,6.27c5.5,2.12,8.3,4.78,8.3,9.55
			c0,5.02-3.71,9.36-11.38,9.36c-3.14,0-6.56-0.92-8.3-2.07L389.01,431.05z"/>
		<path d="M482.06,419.57c0,11.19-6.8,17.13-15.1,17.13c-8.59,0-14.62-6.66-14.62-16.5c0-10.32,6.42-17.08,15.1-17.08
			C476.32,403.12,482.06,409.92,482.06,419.57z M456.83,420.1c0,6.95,3.76,13.17,10.37,13.17c6.66,0,10.42-6.13,10.42-13.51
			c0-6.47-3.38-13.22-10.37-13.22C460.3,406.55,456.83,412.96,456.83,420.1z"/>
		<path d="M528.42,403.65h4.2v28.99h13.89v3.52h-18.09V403.65z"/>
		<path d="M596.29,403.65v19.25c0,7.28,3.23,10.37,7.57,10.37c4.82,0,7.91-3.18,7.91-10.37v-19.25h4.25v18.96
			c0,9.99-5.26,14.09-12.3,14.09c-6.66,0-11.67-3.81-11.67-13.89v-19.15H596.29z"/>
		<path d="M686.93,435.1c-1.54,0.77-4.63,1.54-8.59,1.54c-9.17,0-16.06-5.79-16.06-16.45c0-10.18,6.9-17.08,16.98-17.08
			c4.05,0,6.61,0.87,7.72,1.45l-1.01,3.43c-1.59-0.77-3.86-1.35-6.56-1.35c-7.62,0-12.69,4.87-12.69,13.41
			c0,7.96,4.58,13.07,12.49,13.07c2.56,0,5.16-0.53,6.85-1.35L686.93,435.1z"/>
		<path d="M737.29,403.65v32.51h-4.2v-32.51H737.29z"/>
		<path d="M813.32,419.57c0,11.19-6.8,17.13-15.1,17.13c-8.59,0-14.62-6.66-14.62-16.5c0-10.32,6.42-17.08,15.1-17.08
			C807.57,403.12,813.32,409.92,813.32,419.57z M788.09,420.1c0,6.95,3.76,13.17,10.37,13.17c6.66,0,10.42-6.13,10.42-13.51
			c0-6.47-3.38-13.22-10.37-13.22C791.56,406.55,788.09,412.96,788.09,420.1z"/>
		<path d="M859.67,436.16v-32.51h4.58l10.42,16.45c2.41,3.81,4.29,7.24,5.84,10.56l0.1-0.05c-0.39-4.34-0.48-8.3-0.48-13.36v-13.6
			h3.96v32.51h-4.24l-10.32-16.5c-2.27-3.62-4.44-7.33-6.08-10.85l-0.15,0.05c0.24,4.1,0.34,8.01,0.34,13.41v13.89H859.67z"/>
		<path d="M949.16,420.92h-12.64v11.72h14.09v3.52h-18.28v-32.51h17.56v3.52h-13.36v10.28h12.64V420.92z"/>
		<path d="M996.38,431.05c1.88,1.16,4.63,2.12,7.53,2.12c4.29,0,6.8-2.27,6.8-5.55c0-3.04-1.74-4.78-6.13-6.46
			c-5.31-1.88-8.59-4.63-8.59-9.21c0-5.07,4.2-8.83,10.52-8.83c3.33,0,5.74,0.77,7.19,1.59l-1.16,3.43
			c-1.06-0.58-3.23-1.54-6.17-1.54c-4.44,0-6.13,2.65-6.13,4.87c0,3.04,1.98,4.53,6.46,6.27c5.5,2.12,8.3,4.78,8.3,9.55
			c0,5.02-3.71,9.36-11.38,9.36c-3.14,0-6.56-0.92-8.3-2.07L996.38,431.05z"/>
	</g>
	<line class="st4" x1="169.89" y1="573.02" x2="303.01" y2="404.05"/>
	<polygon class="st1" points="303.01,404.05 153.3,247.29 171.35,224.4 341.11,402.59 192.1,590.5 169.89,573.02 	"/>
</g>
</svg>
